<svg width="40" height="44" viewBox="0 0 40 44" fill="none" xmlns="http://www.w3.org/2000/svg">
<path fill-rule="evenodd" clip-rule="evenodd" d="M22 38.6061L36 30.8109V15.4585L22 23.1809V38.6061ZM18 23.1771L4 15.4031V30.8423L18 38.6101V23.1771ZM20 4.29543L6.11862 12.0039L20.02 19.7216L33.934 12.0331L20 4.29543ZM1.02871 10.2517L19.0287 0.251685C19.6328 -0.0838951 20.3672 -0.0838951 20.9713 0.251685L38.9713 10.2517C39.6062 10.6044 40 11.2737 40 12V32C40 32.7263 39.6062 33.3956 38.9713 33.7483L20.9713 43.7483C20.3672 44.0839 19.6328 44.0839 19.0287 43.7483L1.02871 33.7483C0.393784 33.3956 0 32.7263 0 32V12C0 11.2737 0.393784 10.6044 1.02871 10.2517Z" fill="black"/>
</svg>
