<svg width="44" height="44" viewBox="0 0 44 44" fill="none" xmlns="http://www.w3.org/2000/svg">
<path d="M22 18C27.1257 18 31.8492 17.3104 35.3604 16.14C37.1055 15.5583 38.6621 14.8215 39.8234 13.9063C40.9622 13.0088 42 11.7039 42 10C42 8.29611 40.9622 6.99118 39.8234 6.09371C38.6621 5.17846 37.1055 4.44171 35.3604 3.85999C31.8492 2.68959 27.1257 2 22 2C16.8743 2 12.1508 2.68959 8.63962 3.85999C6.89447 4.44171 5.33792 5.17846 4.17658 6.09371C3.03779 6.99118 2 8.29611 2 10C2 11.7039 3.03779 13.0088 4.17658 13.9063C5.33792 14.8215 6.89447 15.5583 8.63962 16.14C12.1508 17.3104 16.8743 18 22 18Z" stroke="black" stroke-width="4"/>
<rect y="36" width="28" height="4" rx="2" transform="rotate(-90 0 36)" fill="black"/>
<rect x="40" y="36" width="28" height="4" rx="2" transform="rotate(-90 40 36)" fill="black"/>
<mask id="mask0_904_1588" style="mask-type:alpha" maskUnits="userSpaceOnUse" x="0" y="34" width="44" height="10">
<rect y="34" width="44" height="10" fill="#E5E5E5"/>
</mask>
<g mask="url(#mask0_904_1588)">
<path d="M22 42C27.1257 42 31.8492 41.3104 35.3604 40.14C37.1055 39.5583 38.6621 38.8215 39.8234 37.9063C40.9622 37.0088 42 35.7039 42 34C42 32.2961 40.9622 30.9912 39.8234 30.0937C38.6621 29.1785 37.1055 28.4417 35.3604 27.86C31.8492 26.6896 27.1257 26 22 26C16.8743 26 12.1508 26.6896 8.63962 27.86C6.89447 28.4417 5.33792 29.1785 4.17658 30.0937C3.03779 30.9912 2 32.2961 2 34C2 35.7039 3.03779 37.0088 4.17658 37.9063C5.33792 38.8215 6.89447 39.5583 8.63962 40.14C12.1508 41.3104 16.8743 42 22 42Z" stroke="black" stroke-width="4"/>
</g>
</svg>
