<svg xmlns="http://www.w3.org/2000/svg" fill="none" viewBox="0 0 42 42">
  <g clip-path="url(#a)">
    <path stroke="currentColor" stroke-width="2" d="M1 8v25M41 8.5c0 .815-.404 1.688-1.342 2.586-.94.9-2.354 1.757-4.184 2.498C31.82 15.063 26.704 16 21 16c-5.703 0-10.82-.938-14.474-2.416-1.83-.741-3.244-1.598-4.184-2.498C1.404 10.188 1 9.315 1 8.5c0-.814.404-1.688 1.342-2.586.94-.9 2.354-1.757 4.184-2.497C10.18 1.937 15.296 1 21 1c5.703 0 10.82.938 14.474 2.417 1.83.74 3.244 1.597 4.184 2.497C40.596 6.812 41 7.686 41 8.5ZM41 33V8"/>
    <mask id="b" width="42" height="10" x="0" y="33" maskUnits="userSpaceOnUse" style="mask-type:alpha">
      <path fill="#E5E5E5" d="M0 33h42v10H0z"/>
    </mask>
    <g mask="url(#b)">
      <path stroke="currentColor" stroke-width="2" d="M41 32.5c0 .815-.404 1.688-1.342 2.586-.94.9-2.354 1.757-4.184 2.498C31.82 39.062 26.704 40 21 40c-5.703 0-10.82-.938-14.474-2.416-1.83-.741-3.244-1.598-4.184-2.498C1.404 34.188 1 33.315 1 32.5c0-.814.404-1.689 1.342-2.586.94-.9 2.354-1.757 4.184-2.498C10.18 25.938 15.296 25 21 25c5.703 0 10.82.938 14.474 2.416 1.83.741 3.244 1.598 4.184 2.498C40.596 30.81 41 31.685 41 32.5Z"/>
    </g>
  </g>
  <defs>
    <clipPath id="a">
      <path fill="#fff" d="M0 0h42v42H0z"/>
    </clipPath>
  </defs>
</svg>
