<svg width="44" height="44" viewBox="0 0 44 44" fill="none" xmlns="http://www.w3.org/2000/svg">
<path fill-rule="evenodd" clip-rule="evenodd" d="M22 44C9.84974 44 0 34.1503 0 22C0 9.84974 9.84974 0 22 0C34.1503 0 44 9.84974 44 22C44 34.1503 34.1503 44 22 44ZM22 12C15.2592 12 9.22641 13.378 5.19083 15.5481C7.7849 8.79402 14.3326 4 22 4C29.6674 4 36.2151 8.79402 38.8092 15.5481C34.7736 13.378 28.7408 12 22 12ZM22 40C14.3326 40 7.7849 35.206 5.19083 28.4519C9.22641 30.622 15.2592 32 22 32C28.7408 32 34.7736 30.622 38.8092 28.4519C36.2151 35.206 29.6674 40 22 40ZM35.9011 25.4296C32.3536 27.0421 27.3712 28 22 28C16.6288 28 11.6464 27.0421 8.09886 25.4296C6.54233 24.7221 5.36929 23.9328 4.65719 23.1676C4.16955 22.6435 4 22.2669 4 22C4 21.7331 4.16955 21.3565 4.65719 20.8324C5.36929 20.0672 6.54233 19.2779 8.09886 18.5704C11.6464 16.9579 16.6288 16 22 16C27.3712 16 32.3536 16.9579 35.9011 18.5704C37.4577 19.2779 38.6307 20.0672 39.3428 20.8324C39.8305 21.3565 40 21.7331 40 22C40 22.2669 39.8305 22.6435 39.3428 23.1676C38.6307 23.9328 37.4577 24.7221 35.9011 25.4296Z" fill="black"/>
</svg>
