<svg xmlns="http://www.w3.org/2000/svg" fill="none" viewBox="0 0 42 42">
  <path stroke="currentColor" stroke-width="2" d="M40 20.5C40 30.67 31.317 39 20.5 39S1 30.67 1 20.5 9.683 2 20.5 2 40 10.33 40 20.5Z"/>
  <path stroke="currentColor" stroke-width="2" d="M40 20.5c0 .823-.398 1.7-1.311 2.595-.916.898-2.294 1.752-4.076 2.492C31.05 27.063 26.063 28 20.5 28c-5.562 0-10.551-.937-14.113-2.413-1.783-.74-3.16-1.594-4.076-2.492C1.398 22.2 1 21.323 1 20.5c0-.823.398-1.7 1.311-2.595.916-.898 2.293-1.752 4.076-2.492C9.95 13.937 14.937 13 20.5 13c5.562 0 10.551.937 14.113 2.413 1.782.74 3.16 1.594 4.076 2.492C39.602 18.8 40 19.677 40 20.5Z"/>
</svg>
